<svg width="171" height="30" viewBox="0 0 171 30" fill="none" xmlns="http://www.w3.org/2000/svg">
<g clip-path="url(#clip0_1609_47197)">
<rect width="171" height="30" fill="white"/>
<path d="M50.3334 2.7168H60.2645C65.7644 2.7168 68.5558 5.52241 68.5373 9.49704C68.5558 12.5949 66.6211 14.553 64.0508 15.1472V15.4005C66.8607 15.5467 69.5139 17.9139 69.5323 21.8203C69.5139 26.019 66.5474 29.1169 60.9094 29.1169H50.3242V2.7168H50.3334ZM59.5091 13.7737C61.6832 13.7931 63.3231 12.4975 63.3046 10.3835C63.3231 8.46442 61.978 7.17851 59.6104 7.17851H55.5016V13.7834H59.4999L59.5091 13.7737ZM59.8868 24.5967C62.8901 24.6162 64.1798 23.3011 64.1614 21.3138C64.1798 19.0926 62.5768 17.5242 60.025 17.5242H55.5109V24.5967H59.8868Z" fill="#212223"/>
<path d="M77.4652 29.1266H72.168V2.7168H77.4652V29.1169V29.1266Z" fill="#212223"/>
<path d="M80.8126 18.2965C80.7941 11.5552 84.7371 6.98633 90.7897 6.98633C96.2159 6.98633 100.5 10.6103 100.5 18.0627V19.7577H86.3769C86.3769 23.0602 88.2194 25.0962 91.1398 25.1157C93.0652 25.0962 94.4379 24.2097 94.9814 22.9043H100.352C99.5508 26.9471 96.1237 29.5676 91.02 29.5871C84.6818 29.5676 80.7941 25.2423 80.8126 18.316V18.2965ZM95.1656 15.9974C95.1472 13.3379 93.4153 11.4286 90.9003 11.448C88.3115 11.4286 86.4875 13.4841 86.3677 15.9974H95.1656Z" fill="#212223"/>
<path d="M109.033 29.1273H103.395V7.25712H108.765V10.92C109.696 8.40664 112.128 6.97461 115.196 6.97461C119.516 6.97461 122.335 10.092 122.317 15.1869V29.1176H116.716V16.2293C116.697 13.5308 115.325 11.9234 112.985 11.9234C110.645 11.9234 109.023 13.599 109.023 16.4728V29.1176L109.033 29.1273Z" fill="#212223"/>
<path d="M125.324 18.2159C125.324 10.7245 129.166 6.98367 133.735 6.98367C137.199 6.98367 139.042 9.15608 139.788 10.9291V2.7168H145.426V29.1169H139.871V25.6099C139.088 27.4218 137.107 29.4773 133.744 29.4773C129.028 29.4773 125.333 25.5124 125.333 18.2061L125.324 18.2159ZM135.117 24.7331C137.936 24.7136 139.53 22.1126 139.53 18.1672C139.53 14.2218 137.945 11.7279 135.117 11.7279C132.289 11.7279 130.723 14.3679 130.741 18.1672C130.723 22.0346 132.261 24.7136 135.117 24.7331Z" fill="#212223"/>
<path d="M151.909 0C153.309 0.0194835 154.479 1.22746 154.461 2.73743C154.479 4.21817 153.309 5.43588 151.909 5.43588C150.509 5.43588 149.32 4.20843 149.32 2.73743C149.32 1.26642 150.481 0.0194835 151.909 0Z" fill="#1F8BFF"/>
<path d="M154.72 8.43652H149.082V29.128H154.72V8.43652Z" fill="#212223"/>
<path d="M170.249 12.9066H166.361V22.4048C166.343 24.1583 167.163 24.5772 168.305 24.6162C168.876 24.6162 169.862 24.5578 170.553 24.4993V29.2143C169.945 29.3117 168.931 29.4384 167.54 29.4189C163.468 29.4384 160.686 27.5095 160.723 23.2621V12.9164H157.867V8.44493H160.723V2.7168H166.361V8.42545H170.249V12.8969V12.9066Z" fill="#212223"/>
<path d="M37.0519 11.2939C37.0519 11.2939 37.154 11.3803 37.1846 11.4343C43.1156 19.7786 38.1544 28.8786 30.8554 29.7206C30.4879 29.7638 30.1204 29.7854 29.7529 29.7854H18.1562C18.1562 29.7854 19.6569 27.1946 19.6569 19.1417H19.6773C19.6773 10.7974 28.7627 4.69832 37.0417 11.2831L37.0519 11.2939Z" fill="url(#paint0_linear_1609_47197)" style="mix-blend-mode:multiply"/>
<path d="M13.1527 1.02845C21.0642 0.510297 27.6384 7.13829 27.6384 15.3963C27.6384 29.4403 31.1704 29.6778 31.1704 29.6778C30.8029 29.7317 30.2721 29.7965 29.8638 29.7965C25.8315 29.7965 14.0102 29.7965 14.0102 29.7965C6.21107 29.8073 -0.056849 22.8555 0.433151 14.4787C0.851693 7.311 6.3744 1.47103 13.1527 1.02845Z" fill="url(#paint1_linear_1609_47197)" style="mix-blend-mode:multiply"/>
</g>
<defs>
<linearGradient id="paint0_linear_1609_47197" x1="28.9873" y1="8.50888" x2="28.9873" y2="29.7962" gradientUnits="userSpaceOnUse">
<stop stop-color="#85C0FF" stop-opacity="0.5"/>
<stop offset="1" stop-color="#53A6FF"/>
</linearGradient>
<linearGradient id="paint1_linear_1609_47197" x1="15.7865" y1="0.996061" x2="15.7865" y2="29.8073" gradientUnits="userSpaceOnUse">
<stop stop-color="#85C0FF" stop-opacity="0.5"/>
<stop offset="1" stop-color="#1F8BFF"/>
</linearGradient>
<clipPath id="clip0_1609_47197">
<rect width="171" height="30" fill="white"/>
</clipPath>
</defs>
</svg>
