<svg width="229" height="150" viewBox="0 0 229 150" fill="none" xmlns="http://www.w3.org/2000/svg">
<g clip-path="url(#clip0_1829_17794)">
<path d="M24.5977 103.292H39.4664C47.7008 103.292 51.88 107.399 51.8524 113.218C51.88 117.753 48.9835 120.62 45.1353 121.49V121.861C49.3421 122.075 53.3145 125.54 53.3421 131.259C53.3145 137.406 48.8731 141.941 40.4319 141.941H24.5977V103.292ZM38.3354 119.465C41.5905 119.493 44.0456 117.597 44.0181 114.502C44.0456 111.692 42.0319 109.81 38.4871 109.81H32.3493V119.479H38.3354V119.465ZM38.9009 135.324C43.3974 135.352 45.3284 133.427 45.3008 130.518C45.3284 127.266 42.9284 124.97 39.1078 124.97H32.3493V135.324H38.9009Z" fill="#212223"/>
<path d="M65.2239 141.955H57.293V103.306H65.2239V141.955Z" fill="#212223"/>
<path d="M70.2306 126.097C70.203 116.228 76.1063 109.539 85.1683 109.539C93.2923 109.539 99.706 114.844 99.706 125.755V128.236H78.5615C78.5615 133.071 81.3201 136.052 85.6924 136.08C88.5751 136.052 90.6303 134.754 91.444 132.843H99.4853C98.2853 138.761 93.1544 142.598 85.5131 142.626C76.0236 142.598 70.203 136.266 70.2306 126.126V126.097ZM91.7337 122.731C91.7061 118.838 89.113 116.042 85.3476 116.071C81.4718 116.042 78.7408 119.052 78.5615 122.731H91.7337Z" fill="#212223"/>
<path d="M112.484 141.956H104.043V109.953H112.084V115.315C113.477 111.636 117.119 109.539 121.712 109.539C128.181 109.539 132.401 114.103 132.374 121.562V141.956H123.987V123.088C123.96 119.137 121.905 116.784 118.401 116.784C114.898 116.784 112.47 119.237 112.47 123.444V141.956H112.484Z" fill="#212223"/>
<path d="M136.875 125.968C136.875 115.001 142.627 109.524 149.468 109.524C154.654 109.524 157.413 112.705 158.53 115.3V103.292H166.971V141.941H158.654V136.807C157.482 139.46 154.516 142.469 149.482 142.469C142.42 142.469 136.889 136.665 136.889 125.968H136.875ZM151.551 135.524C155.771 135.495 158.157 131.687 158.157 125.911C158.157 120.135 155.785 116.484 151.551 116.484C147.316 116.484 144.971 120.349 144.999 125.911C144.971 131.573 147.275 135.495 151.551 135.524Z" fill="#212223"/>
<path d="M176.677 99.3125C178.773 99.341 180.525 101.109 180.497 103.32C180.525 105.488 178.773 107.271 176.677 107.271C174.58 107.271 172.801 105.474 172.801 103.32C172.801 101.167 174.539 99.341 176.677 99.3125Z" fill="#1F8BFF"/>
<path d="M180.887 111.664H172.445V141.956H180.887V111.664Z" fill="#212223"/>
<path d="M204.143 118.195H198.323V132.1C198.295 134.667 199.522 135.281 201.233 135.338C202.088 135.338 203.564 135.252 204.598 135.166V142.069C203.688 142.212 202.171 142.397 200.088 142.369C193.992 142.397 189.826 139.573 189.881 133.355V118.209H185.605V111.663H189.881V103.306H198.323V111.663H204.143V118.209V118.195Z" fill="#212223"/>
<path d="M163.108 27.8729C163.249 27.9818 163.389 28.1269 163.494 28.2721C180.41 51.5695 166.249 76.9536 145.42 79.3124C144.385 79.4394 143.332 79.4938 142.279 79.4938H109.184C109.184 79.4938 113.483 72.2542 113.483 49.7914H113.553C113.553 26.4939 139.489 9.47444 163.108 27.8729Z" fill="url(#paint0_linear_1829_17794)" style="mix-blend-mode:multiply"/>
<path d="M94.8996 -0.777561C117.484 -2.22912 136.242 16.2964 136.242 39.3398C136.242 78.5136 146.332 79.185 146.332 79.185C145.28 79.3483 143.77 79.5297 142.612 79.5297C131.083 79.4934 97.3738 79.5297 97.3738 79.5297C75.088 79.5297 57.1892 60.1333 58.5754 36.7814C59.7862 16.7681 75.5443 0.474405 94.8996 -0.777561Z" fill="url(#paint1_linear_1829_17794)" style="mix-blend-mode:multiply"/>
</g>
<defs>
<linearGradient id="paint0_linear_1829_17794" x1="140.085" y1="20.0889" x2="140.085" y2="79.4938" gradientUnits="userSpaceOnUse">
<stop stop-color="#85C0FF" stop-opacity="0.5"/>
<stop offset="1" stop-color="#53A6FF"/>
</linearGradient>
<linearGradient id="paint1_linear_1829_17794" x1="102.428" y1="-0.850138" x2="102.428" y2="79.5297" gradientUnits="userSpaceOnUse">
<stop stop-color="#85C0FF" stop-opacity="0.5"/>
<stop offset="1" stop-color="#1F8BFF"/>
</linearGradient>
<clipPath id="clip0_1829_17794">
<rect width="229" height="150" fill="white"/>
</clipPath>
</defs>
</svg>
