<svg width="240" height="200" viewBox="0 0 240 200" fill="none" xmlns="http://www.w3.org/2000/svg">
<rect width="240" height="200" rx="40" fill="#FAFAFA"/>
<path d="M169.711 23H81.6265C73.1936 23 66.3574 29.9014 66.3574 38.4147V142.43C66.3574 150.944 73.1936 157.845 81.6265 157.845H169.711C178.144 157.845 184.98 150.944 184.98 142.43V38.4147C184.98 29.9014 178.144 23 169.711 23Z" fill="url(#paint0_linear_1206_37311)"/>
<mask id="mask0_1206_37311" style="mask-type:luminance" maskUnits="userSpaceOnUse" x="66" y="23" width="119" height="135">
<path d="M169.711 23H81.6265C73.1936 23 66.3574 29.9014 66.3574 38.4147V142.43C66.3574 150.944 73.1936 157.845 81.6265 157.845H169.711C178.144 157.845 184.98 150.944 184.98 142.43V38.4147C184.98 29.9014 178.144 23 169.711 23Z" fill="white"/>
</mask>
<g mask="url(#mask0_1206_37311)">
<path opacity="0.2" d="M170.821 165.458V23L131.178 39.2651L127.715 160.072L170.821 165.458Z" fill="url(#paint1_linear_1206_37311)"/>
<path d="M134.439 159.64L117.98 159.87V156.59H172.973C174.15 156.617 182.8 155.078 183.723 144.752C184.538 135.627 183.496 24.6465 183.496 24.6465L190.448 36.4437L194.339 157.845L170.954 168.414L134.426 159.64H134.439Z" fill="#AAAAAA"/>
</g>
<path d="M161.623 47.7017V151.002L137.409 175.46H50.0195C46.1421 175.46 43 172.288 43 168.374V47.7017C43 43.7873 46.1421 40.6152 50.0195 40.6152H154.603C158.48 40.6152 161.623 43.7873 161.623 47.7017Z" fill="url(#paint2_linear_1206_37311)"/>
<mask id="mask1_1206_37311" style="mask-type:luminance" maskUnits="userSpaceOnUse" x="43" y="40" width="119" height="136">
<path d="M161.623 47.7017V151.002L137.409 175.46H50.0195C46.1421 175.46 43 172.288 43 168.374V47.7017C43 43.7873 46.1421 40.6152 50.0195 40.6152H154.603C158.48 40.6152 161.623 43.7873 161.623 47.7017Z" fill="white"/>
</mask>
<g mask="url(#mask1_1206_37311)">
<path d="M45.6082 175.448L43.2148 173.814H139.228L139.937 176.001L47.8009 175.596L45.6082 175.448Z" fill="#CCCCCC"/>
<path d="M160.58 41.614V163.231L166.624 143.322L164.778 40.7637L160.58 41.614Z" fill="#CCCCCC"/>
</g>
<path d="M143.438 108.632H61.1832C59.2177 108.632 57.6133 107.026 57.6133 105.028C57.6133 103.044 59.2044 101.424 61.1832 101.424H143.438C145.404 101.424 147.008 103.03 147.008 105.028C147.008 107.012 145.417 108.632 143.438 108.632Z" fill="#C9C9C9"/>
<path d="M143.438 132.618H61.1832C59.2177 132.618 57.6133 131.012 57.6133 129.014C57.6133 127.03 59.2044 125.41 61.1832 125.41H143.438C145.404 125.41 147.008 127.016 147.008 129.014C147.008 130.998 145.417 132.618 143.438 132.618Z" fill="#C9C9C9"/>
<path d="M94.5825 157.845H61.1832C59.2177 157.845 57.6133 156.238 57.6133 154.241C57.6133 152.256 59.2044 150.637 61.1832 150.637H94.5959C96.5614 150.637 98.1658 152.243 98.1658 154.241C98.1658 156.225 96.5747 157.845 94.5959 157.845H94.5825Z" fill="#C9C9C9"/>
<path d="M91.8229 74.3324C94.023 64.9221 88.25 55.4931 78.9287 53.2721C69.6074 51.0511 60.2675 56.8791 58.0675 66.2894C55.8675 75.6996 61.6404 85.1286 70.9617 87.3496C80.283 89.5707 89.6229 83.7426 91.8229 74.3324Z" fill="url(#paint3_linear_1206_37311)"/>
<path d="M74.9546 70.3098C77.7901 70.3098 80.0888 67.9892 80.0888 65.1266C80.0888 62.264 77.7901 59.9434 74.9546 59.9434C72.119 59.9434 69.8203 62.264 69.8203 65.1266C69.8203 67.9892 72.119 70.3098 74.9546 70.3098Z" fill="#AAAAAA"/>
<path d="M84.9416 78.5705C84.9416 81.9181 80.4625 84.6177 74.9405 84.6177C69.4185 84.6177 64.9395 81.9046 64.9395 78.5705C64.9395 75.2365 69.4185 72.5234 74.9405 72.5234C80.4625 72.5234 84.9416 75.2365 84.9416 78.5705Z" fill="#AAAAAA"/>
<path d="M137.408 175.447V158.075C137.408 154.16 140.55 150.988 144.428 150.988H161.622L137.408 175.447Z" fill="#CCCCCC"/>
<path d="M138.531 174.191V158.655C138.531 155.011 141.459 152.055 145.069 152.055H160.579L138.531 174.191Z" fill="url(#paint4_linear_1206_37311)"/>
<path d="M220.386 66.3422L165.18 122.075C164.952 122.305 164.605 122.305 164.378 122.075L146.448 103.975C146.221 103.745 146.221 103.394 146.448 103.165L201.654 47.4315C206.829 42.2077 215.212 42.2077 220.373 47.4315C225.547 52.6552 225.547 61.1185 220.373 66.3287L220.386 66.3422Z" fill="url(#paint5_linear_1206_37311)"/>
<mask id="mask2_1206_37311" style="mask-type:luminance" maskUnits="userSpaceOnUse" x="146" y="43" width="79" height="80">
<path d="M220.386 66.3422L165.18 122.075C164.952 122.305 164.605 122.305 164.378 122.075L146.448 103.975C146.221 103.745 146.221 103.394 146.448 103.165L201.654 47.4315C206.829 42.2077 215.212 42.2077 220.373 47.4315C225.547 52.6552 225.547 61.1185 220.373 66.3287L220.386 66.3422Z" fill="white"/>
</mask>
<g mask="url(#mask2_1206_37311)">
<path opacity="0.2" d="M157.304 114.935L232.821 40.6152L240.001 67.7462L171.317 123.48L155.299 125.41L157.304 114.935Z" fill="url(#paint6_linear_1206_37311)"/>
</g>
<path d="M146.113 103.691L139 125.639C138.238 127.988 140.43 130.215 142.757 129.446L164.778 122.373L146.113 103.691Z" fill="url(#paint7_linear_1206_37311)"/>
<mask id="mask3_1206_37311" style="mask-type:luminance" maskUnits="userSpaceOnUse" x="138" y="103" width="27" height="27">
<path d="M146.113 103.691L139 125.639C138.238 127.988 140.43 130.215 142.757 129.446L164.778 122.373L146.113 103.691Z" fill="white"/>
</mask>
<g mask="url(#mask3_1206_37311)">
<path d="M139.762 119.443L150.352 130.134L138.84 130.039L136.58 126.138L139.762 119.443Z" fill="url(#paint8_linear_1206_37311)"/>
<path opacity="0.2" d="M157.892 114.463L138.211 130.593L166.516 129.014L167.506 121.495L157.892 114.463Z" fill="url(#paint9_linear_1206_37311)"/>
</g>
<defs>
<linearGradient id="paint0_linear_1206_37311" x1="125.669" y1="157.845" x2="125.669" y2="23" gradientUnits="userSpaceOnUse">
<stop stop-color="#C9C9C9"/>
<stop offset="1" stop-color="#AAAAAA"/>
</linearGradient>
<linearGradient id="paint1_linear_1206_37311" x1="149.268" y1="23" x2="149.268" y2="165.458" gradientUnits="userSpaceOnUse">
<stop stop-color="#666666" stop-opacity="0"/>
<stop offset="1"/>
</linearGradient>
<linearGradient id="paint2_linear_1206_37311" x1="102.311" y1="175.447" x2="102.311" y2="40.6152" gradientUnits="userSpaceOnUse">
<stop stop-color="#DBDBDB"/>
<stop offset="1" stop-color="#F4F4F4"/>
</linearGradient>
<linearGradient id="paint3_linear_1206_37311" x1="57.6058" y1="70.3151" x2="92.2754" y2="70.3151" gradientUnits="userSpaceOnUse">
<stop stop-color="#DDDDDD"/>
<stop offset="1" stop-color="#C9C9C9"/>
</linearGradient>
<linearGradient id="paint4_linear_1206_37311" x1="151.701" y1="165.499" x2="136.855" y2="149.374" gradientUnits="userSpaceOnUse">
<stop stop-color="#AAAAAA"/>
<stop offset="1" stop-color="#807B7B"/>
</linearGradient>
<linearGradient id="paint5_linear_1206_37311" x1="207.364" y1="98.3055" x2="147.268" y2="44.9348" gradientUnits="userSpaceOnUse">
<stop offset="0.19" stop-color="#666666"/>
<stop offset="0.68" stop-color="#DCDDDD"/>
</linearGradient>
<linearGradient id="paint6_linear_1206_37311" x1="197.656" y1="40.6152" x2="197.656" y2="125.41" gradientUnits="userSpaceOnUse">
<stop stop-color="#666666"/>
<stop offset="1"/>
</linearGradient>
<linearGradient id="paint7_linear_1206_37311" x1="141.861" y1="110.845" x2="156.971" y2="131.861" gradientUnits="userSpaceOnUse">
<stop stop-color="#FAFAFA"/>
<stop offset="1" stop-color="#AAAAAA"/>
</linearGradient>
<linearGradient id="paint8_linear_1206_37311" x1="144.816" y1="130.336" x2="135.574" y2="120.03" gradientUnits="userSpaceOnUse">
<stop stop-color="#666666"/>
<stop offset="1" stop-color="#DCDDDD"/>
</linearGradient>
<linearGradient id="paint9_linear_1206_37311" x1="150.378" y1="122.521" x2="160.153" y2="136.107" gradientUnits="userSpaceOnUse">
<stop stop-color="#666666"/>
<stop offset="1"/>
</linearGradient>
</defs>
</svg>
